
<global>
amp_veltrack=0
</global>

<group>
ampeg_release=1.25
group_label=RR1_0-42
seq_length=4
seq_position=1
xfin_hicc1=42
xfout_hicc1=84
xfout_locc1=42

<region>
hivel=127
key=G5
lovel=1
offset=499
sample=4Trumpets_staccato_PP_G5_RR1.opus
</region>

<region>
hivel=127
key=G4
lovel=1
offset=6
sample=4Trumpets_staccato_PP_G4_RR1.opus
</region>

<region>
hivel=127
key=G3
lovel=1
offset=361
sample=4Trumpets_staccato_PP_G3_RR1.opus
</region>

<region>
hivel=127
key=G#5
lovel=1
offset=620
sample=4Trumpets_staccato_PP_G#5_RR1.opus
</region>

<region>
hivel=127
key=G#4
lovel=1
sample=4Trumpets_staccato_PP_G#4_RR1.opus
</region>

<region>
hivel=127
key=G#3
lovel=1
offset=580
sample=4Trumpets_staccato_PP_G#3_RR1.opus
</region>

<region>
hivel=127
key=F5
lovel=1
offset=500
sample=4Trumpets_staccato_PP_F5_RR1.opus
</region>

<region>
hivel=127
key=F4
lovel=1
offset=30
sample=4Trumpets_staccato_PP_F4_RR1.opus
</region>

<region>
hivel=127
key=F#5
lovel=1
offset=1010
sample=4Trumpets_staccato_PP_F#5_RR1.opus
</region>

<region>
hivel=127
key=F#4
lovel=1
offset=391
sample=4Trumpets_staccato_PP_F#4_RR1.opus
</region>

<region>
hivel=127
key=F#3
lovel=1
offset=1112
sample=4Trumpets_staccato_PP_F#3_RR1.opus
</region>

<region>
hivel=127
key=E5
lovel=1
offset=413
sample=4Trumpets_staccato_PP_E5_RR1.opus
</region>

<region>
hivel=127
key=E4
lovel=1
offset=264
sample=4Trumpets_staccato_PP_E4_RR1.opus
</region>

<region>
hivel=127
key=D5
lovel=1
sample=4Trumpets_staccato_PP_D5_RR1.opus
</region>

<region>
hivel=127
key=D4
lovel=1
offset=235
sample=4Trumpets_staccato_PP_D4_RR1.opus
</region>

<region>
hivel=127
key=D#5
lovel=1
offset=2135
sample=4Trumpets_staccato_PP_D#5_RR1.opus
</region>

<region>
hivel=127
key=D#4
lovel=1
sample=4Trumpets_staccato_PP_D#4_RR1.opus
</region>

<region>
hivel=127
key=C6
lovel=1
sample=4Trumpets_staccato_PP_C6_RR1.opus
</region>

<region>
hivel=127
key=C5
lovel=1
offset=870
sample=4Trumpets_staccato_PP_C5_RR1.opus
</region>

<region>
hikey=C4
hivel=127
lokey=C4
lovel=1
offset=397
sample=4Trumpets_staccato_PP_C4_RR1.opus
</region>

<region>
hivel=127
key=C#5
lovel=1
offset=132
sample=4Trumpets_staccato_PP_C#5_RR1.opus
</region>

<region>
hivel=127
key=C#4
lovel=1
offset=223
sample=4Trumpets_staccato_PP_C#4_RR1.opus
</region>

<region>
hivel=127
key=B5
lovel=1
offset=1201
sample=4Trumpets_staccato_PP_B5_RR1.opus
</region>

<region>
hivel=127
key=B4
lovel=1
sample=4Trumpets_staccato_PP_B4_RR1.opus
</region>

<region>
hivel=127
key=B3
lovel=1
offset=492
sample=4Trumpets_staccato_PP_B3_RR1.opus
</region>

<region>
hivel=127
key=A5
lovel=1
offset=405
sample=4Trumpets_staccato_PP_A5_RR1.opus
</region>

<region>
hivel=127
key=A4
lovel=1
sample=4Trumpets_staccato_PP_A4_RR1.opus
</region>

<region>
hivel=127
key=A3
lovel=1
offset=351
sample=4Trumpets_staccato_PP_A3_RR1.opus
</region>

<region>
hivel=127
key=A#5
lovel=1
offset=397
sample=4Trumpets_staccato_PP_A#5_RR1.opus
</region>

<region>
hivel=127
key=A#4
lovel=1
sample=4Trumpets_staccato_PP_A#4_RR1.opus
</region>

<region>
hivel=127
key=A#3
lovel=1
sample=4Trumpets_staccato_PP_A#3_RR1.opus
</region>
</group>

<group>
ampeg_release=1.25
group_label=RR1_85-127
seq_length=4
seq_position=1
xfin_hicc1=127
xfin_locc1=85
xfout_hicc1=127
xfout_locc1=127

<region>
hivel=127
key=G5
lovel=1
sample=4Trumpets_staccato_FF_G5_RR1.opus
</region>

<region>
hivel=127
key=G4
lovel=1
sample=4Trumpets_staccato_FF_G4_RR1.opus
</region>

<region>
hivel=127
key=G3
lovel=1
sample=4Trumpets_staccato_FF_G3_RR1.opus
</region>

<region>
hivel=127
key=G#5
lovel=1
offset=289
sample=4Trumpets_staccato_FF_G#5_RR1.opus
</region>

<region>
hivel=127
key=G#4
lovel=1
offset=189
sample=4Trumpets_staccato_FF_G#4_RR1.opus
</region>

<region>
hivel=127
key=G#3
lovel=1
offset=423
sample=4Trumpets_staccato_FF_G#3_RR1.opus
</region>

<region>
hivel=127
key=F5
lovel=1
offset=68
sample=4Trumpets_staccato_FF_F5_RR1.opus
</region>

<region>
hivel=127
key=F4
lovel=1
offset=620
sample=4Trumpets_staccato_FF_F4_RR1.opus
</region>

<region>
hivel=127
key=F#5
lovel=1
offset=106
sample=4Trumpets_staccato_FF_F#5_RR1.opus
</region>

<region>
hivel=127
key=F#4
lovel=1
offset=305
sample=4Trumpets_staccato_FF_F#4_RR1.opus
</region>

<region>
hivel=127
key=F#3
lovel=1
offset=842
sample=4Trumpets_staccato_FF_F#3_RR1.opus
</region>

<region>
hivel=127
key=E5
lovel=1
offset=153
sample=4Trumpets_staccato_FF_E5_RR1.opus
</region>

<region>
hivel=127
key=E4
lovel=1
offset=975
sample=4Trumpets_staccato_FF_E4_RR1.opus
</region>

<region>
hivel=127
key=D5
lovel=1
sample=4Trumpets_staccato_FF_D5_RR1.opus
</region>

<region>
hivel=127
key=D4
lovel=1
offset=257
sample=4Trumpets_staccato_FF_D4_RR1.opus
</region>

<region>
hivel=127
key=D#5
lovel=1
offset=748
sample=4Trumpets_staccato_FF_D#5_RR1.opus
</region>

<region>
hivel=127
key=D#4
lovel=1
sample=4Trumpets_staccato_FF_D#4_RR1.opus
</region>

<region>
hivel=127
key=C6
lovel=1
offset=729
sample=4Trumpets_staccato_FF_C6_RR1.opus
</region>

<region>
hivel=127
key=C5
lovel=1
offset=2104
sample=4Trumpets_staccato_FF_C5_RR1.opus
</region>

<region>
hikey=C4
hivel=127
lokey=C4
lovel=1
offset=418
sample=4Trumpets_staccato_FF_C4_RR1.opus
</region>

<region>
hivel=127
key=C#5
lovel=1
offset=1004
sample=4Trumpets_staccato_FF_C#5_RR1.opus
</region>

<region>
hivel=127
key=C#4
lovel=1
offset=271
sample=4Trumpets_staccato_FF_C#4_RR1.opus
</region>

<region>
hivel=127
key=B5
lovel=1
sample=4Trumpets_staccato_FF_B5_RR1.opus
</region>

<region>
hivel=127
key=B4
lovel=1
offset=596
sample=4Trumpets_staccato_FF_B4_RR1.opus
</region>

<region>
hivel=127
key=B3
lovel=1
offset=407
sample=4Trumpets_staccato_FF_B3_RR1.opus
</region>

<region>
hivel=127
key=A5
lovel=1
offset=74
sample=4Trumpets_staccato_FF_A5_RR1.opus
</region>

<region>
hivel=127
key=A4
lovel=1
sample=4Trumpets_staccato_FF_A4_RR1.opus
</region>

<region>
hivel=127
key=A3
lovel=1
offset=374
sample=4Trumpets_staccato_FF_A3_RR1.opus
</region>

<region>
hivel=127
key=A#5
lovel=1
sample=4Trumpets_staccato_FF_A#5_RR1.opus
</region>

<region>
hivel=127
key=A#4
lovel=1
offset=353
sample=4Trumpets_staccato_FF_A#4_RR1.opus
</region>

<region>
hivel=127
key=A#3
lovel=1
offset=371
sample=4Trumpets_staccato_FF_A#3_RR1.opus
</region>
</group>

<group>
ampeg_release=1.25
group_label=RR1_43-84
seq_length=4
seq_position=1
xfin_hicc1=84
xfin_locc1=43
xfout_hicc1=125
xfout_locc1=84

<region>
hivel=127
key=G5
lovel=1
offset=70
sample=4Trumpets_staccato_MF_G5_RR1.opus
</region>

<region>
hivel=127
key=G4
lovel=1
offset=131
sample=4Trumpets_staccato_MF_G4_RR1.opus
</region>

<region>
hivel=127
key=G3
lovel=1
offset=729
sample=4Trumpets_staccato_MF_G3_RR1.opus
</region>

<region>
hivel=127
key=G#5
lovel=1
sample=4Trumpets_staccato_MF_G#5_RR1.opus
</region>

<region>
hivel=127
key=G#4
lovel=1
offset=2847
sample=4Trumpets_staccato_MF_G#4_RR1.opus
</region>

<region>
hivel=127
key=G#3
lovel=1
offset=242
sample=4Trumpets_staccato_MF_G#3_RR1.opus
</region>

<region>
hivel=127
key=F5
lovel=1
offset=2575
sample=4Trumpets_staccato_MF_F5_RR1.opus
</region>

<region>
hivel=127
key=F4
lovel=1
offset=1046
sample=4Trumpets_staccato_MF_F4_RR1.opus
</region>

<region>
hivel=127
key=F#5
lovel=1
offset=695
sample=4Trumpets_staccato_MF_F#5_RR1.opus
</region>

<region>
hivel=127
key=F#4
lovel=1
offset=153
sample=4Trumpets_staccato_MF_F#4_RR1.opus
</region>

<region>
hivel=127
key=F#3
lovel=1
offset=1173
sample=4Trumpets_staccato_MF_F#3_RR1.opus
</region>

<region>
hivel=127
key=E5
lovel=1
offset=37
sample=4Trumpets_staccato_MF_E5_RR1.opus
</region>

<region>
hivel=127
key=E4
lovel=1
offset=370
sample=4Trumpets_staccato_MF_E4_RR1.opus
</region>

<region>
hivel=127
key=D5
lovel=1
sample=4Trumpets_staccato_MF_D5_RR1.opus
</region>

<region>
hivel=127
key=D4
lovel=1
offset=673
sample=4Trumpets_staccato_MF_D4_RR1.opus
</region>

<region>
hivel=127
key=D#5
lovel=1
offset=367
sample=4Trumpets_staccato_MF_D#5_RR1.opus
</region>

<region>
hivel=127
key=D#4
lovel=1
offset=263
sample=4Trumpets_staccato_MF_D#4_RR1.opus
</region>

<region>
hivel=127
key=C6
lovel=1
sample=4Trumpets_staccato_MF_C6_RR1.opus
</region>

<region>
hivel=127
key=C5
lovel=1
offset=26
sample=4Trumpets_staccato_MF_C5_RR1.opus
</region>

<region>
hikey=C4
hivel=127
lokey=C4
lovel=1
offset=454
sample=4Trumpets_staccato_MF_C4_RR1.opus
</region>

<region>
hivel=127
key=C#5
lovel=1
offset=1256
sample=4Trumpets_staccato_MF_C#5_RR1.opus
</region>

<region>
hivel=127
key=C#4
lovel=1
offset=536
sample=4Trumpets_staccato_MF_C#4_RR1.opus
</region>

<region>
hivel=127
key=B5
lovel=1
offset=1994
sample=4Trumpets_staccato_MF_B5_RR1.opus
</region>

<region>
hivel=127
key=B4
lovel=1
offset=1609
sample=4Trumpets_staccato_MF_B4_RR1.opus
</region>

<region>
hivel=127
key=B3
lovel=1
offset=845
sample=4Trumpets_staccato_MF_B3_RR1.opus
</region>

<region>
hivel=127
key=A5
lovel=1
offset=383
sample=4Trumpets_staccato_MF_A5_RR1.opus
</region>

<region>
hivel=127
key=A4
lovel=1
offset=21
sample=4Trumpets_staccato_MF_A4_RR1.opus
</region>

<region>
hivel=127
key=A3
lovel=1
offset=816
sample=4Trumpets_staccato_MF_A3_RR1.opus
</region>

<region>
hivel=127
key=A#5
lovel=1
offset=508
sample=4Trumpets_staccato_MF_A#5_RR1.opus
</region>

<region>
hivel=127
key=A#4
lovel=1
offset=67
sample=4Trumpets_staccato_MF_A#4_RR1.opus
</region>

<region>
hivel=127
key=A#3
lovel=1
offset=2111
sample=4Trumpets_staccato_MF_A#3_RR1.opus
</region>
</group>

<group>
ampeg_release=1.25
group_label=RR2_0-42
seq_length=4
seq_position=2
xfin_hicc1=42
xfout_hicc1=84
xfout_locc1=42

<region>
hivel=127
key=G5
lovel=1
offset=256
sample=4Trumpets_staccato_PP_G5_RR2.opus
</region>

<region>
hivel=127
key=G4
lovel=1
offset=148
sample=4Trumpets_staccato_PP_G4_RR2.opus
</region>

<region>
hivel=127
key=G3
lovel=1
offset=1972
sample=4Trumpets_staccato_PP_G3_RR2.opus
</region>

<region>
hivel=127
key=G#5
lovel=1
offset=927
sample=4Trumpets_staccato_PP_G#5_RR2.opus
</region>

<region>
hivel=127
key=G#4
lovel=1
sample=4Trumpets_staccato_PP_G#4_RR2.opus
</region>

<region>
hivel=127
key=G#3
lovel=1
offset=286
sample=4Trumpets_staccato_PP_G#3_RR2.opus
</region>

<region>
hivel=127
key=F5
lovel=1
offset=461
sample=4Trumpets_staccato_PP_F5_RR2.opus
</region>

<region>
hivel=127
key=F4
lovel=1
offset=312
sample=4Trumpets_staccato_PP_F4_RR2.opus
</region>

<region>
hivel=127
key=F#5
lovel=1
offset=6549
sample=4Trumpets_staccato_PP_F#5_RR2.opus
</region>

<region>
hivel=127
key=F#4
lovel=1
offset=169
sample=4Trumpets_staccato_PP_F#4_RR2.opus
</region>

<region>
hivel=127
key=F#3
lovel=1
sample=4Trumpets_staccato_PP_F#3_RR2.opus
</region>

<region>
hivel=127
key=E5
lovel=1
offset=324
sample=4Trumpets_staccato_PP_E5_RR2.opus
</region>

<region>
hivel=127
key=E4
lovel=1
offset=252
sample=4Trumpets_staccato_PP_E4_RR2.opus
</region>

<region>
hivel=127
key=D5
lovel=1
offset=778
sample=4Trumpets_staccato_PP_D5_RR2.opus
</region>

<region>
hivel=127
key=D4
lovel=1
offset=110
sample=4Trumpets_staccato_PP_D4_RR2.opus
</region>

<region>
hivel=127
key=D#5
lovel=1
offset=45
sample=4Trumpets_staccato_PP_D#5_RR2.opus
</region>

<region>
hivel=127
key=D#4
lovel=1
offset=550
sample=4Trumpets_staccato_PP_D#4_RR2.opus
</region>

<region>
hivel=127
key=C6
lovel=1
offset=169
sample=4Trumpets_staccato_PP_C6_RR2.opus
</region>

<region>
hivel=127
key=C5
lovel=1
offset=352
sample=4Trumpets_staccato_PP_C5_RR2.opus
</region>

<region>
hikey=C4
hivel=127
lokey=C4
lovel=1
offset=1
sample=4Trumpets_staccato_PP_C4_RR2.opus
</region>

<region>
hivel=127
key=C#5
lovel=1
sample=4Trumpets_staccato_PP_C#5_RR2.opus
</region>

<region>
hivel=127
key=C#4
lovel=1
offset=761
sample=4Trumpets_staccato_PP_C#4_RR2.opus
</region>

<region>
hivel=127
key=B5
lovel=1
offset=83
sample=4Trumpets_staccato_PP_B5_RR2.opus
</region>

<region>
hivel=127
key=B4
lovel=1
offset=202
sample=4Trumpets_staccato_PP_B4_RR2.opus
</region>

<region>
hivel=127
key=B3
lovel=1
sample=4Trumpets_staccato_PP_B3_RR2.opus
</region>

<region>
hivel=127
key=A5
lovel=1
offset=474
sample=4Trumpets_staccato_PP_A5_RR2.opus
</region>

<region>
hivel=127
key=A4
lovel=1
sample=4Trumpets_staccato_PP_A4_RR2.opus
</region>

<region>
hivel=127
key=A3
lovel=1
offset=179
sample=4Trumpets_staccato_PP_A3_RR2.opus
</region>

<region>
hivel=127
key=A#5
lovel=1
offset=341
sample=4Trumpets_staccato_PP_A#5_RR2.opus
</region>

<region>
hivel=127
key=A#4
lovel=1
sample=4Trumpets_staccato_PP_A#4_RR2.opus
</region>

<region>
hivel=127
key=A#3
lovel=1
sample=4Trumpets_staccato_PP_A#3_RR2.opus
</region>
</group>

<group>
ampeg_release=1.25
group_label=RR2_85-127
seq_length=4
seq_position=2
xfin_hicc1=127
xfin_locc1=85
xfout_hicc1=127
xfout_locc1=127

<region>
hivel=127
key=G5
lovel=1
sample=4Trumpets_staccato_FF_G5_RR2.opus
</region>

<region>
hivel=127
key=G4
lovel=1
offset=512
sample=4Trumpets_staccato_FF_G4_RR2.opus
</region>

<region>
hivel=127
key=G3
lovel=1
offset=758
sample=4Trumpets_staccato_FF_G3_RR2.opus
</region>

<region>
hivel=127
key=G#5
lovel=1
offset=293
sample=4Trumpets_staccato_FF_G#5_RR2.opus
</region>

<region>
hivel=127
key=G#4
lovel=1
sample=4Trumpets_staccato_FF_G#4_RR2.opus
</region>

<region>
hivel=127
key=G#3
lovel=1
offset=3
sample=4Trumpets_staccato_FF_G#3_RR2.opus
</region>

<region>
hivel=127
key=F5
lovel=1
offset=498
sample=4Trumpets_staccato_FF_F5_RR2.opus
</region>

<region>
hivel=127
key=F4
lovel=1
sample=4Trumpets_staccato_FF_F4_RR2.opus
</region>

<region>
hivel=127
key=F#5
lovel=1
offset=188
sample=4Trumpets_staccato_FF_F#5_RR2.opus
</region>

<region>
hivel=127
key=F#4
lovel=1
offset=475
sample=4Trumpets_staccato_FF_F#4_RR2.opus
</region>

<region>
hivel=127
key=F#3
lovel=1
offset=1634
sample=4Trumpets_staccato_FF_F#3_RR2.opus
</region>

<region>
hivel=127
key=E5
lovel=1
offset=82
sample=4Trumpets_staccato_FF_E5_RR2.opus
</region>

<region>
hivel=127
key=E4
lovel=1
offset=562
sample=4Trumpets_staccato_FF_E4_RR2.opus
</region>

<region>
hivel=127
key=D5
lovel=1
offset=664
sample=4Trumpets_staccato_FF_D5_RR2.opus
</region>

<region>
hivel=127
key=D4
lovel=1
offset=861
sample=4Trumpets_staccato_FF_D4_RR2.opus
</region>

<region>
hivel=127
key=D#5
lovel=1
offset=2741
sample=4Trumpets_staccato_FF_D#5_RR2.opus
</region>

<region>
hivel=127
key=D#4
lovel=1
sample=4Trumpets_staccato_FF_D#4_RR2.opus
</region>

<region>
hivel=127
key=C6
lovel=1
offset=323
sample=4Trumpets_staccato_FF_C6_RR2.opus
</region>

<region>
hivel=127
key=C5
lovel=1
sample=4Trumpets_staccato_FF_C5_RR2.opus
</region>

<region>
hikey=C4
hivel=127
lokey=C4
lovel=1
offset=811
sample=4Trumpets_staccato_FF_C4_RR2.opus
</region>

<region>
hivel=127
key=C#5
lovel=1
offset=401
sample=4Trumpets_staccato_FF_C#5_RR2.opus
</region>

<region>
hivel=127
key=C#4
lovel=1
offset=33
sample=4Trumpets_staccato_FF_C#4_RR2.opus
</region>

<region>
hivel=127
key=B5
lovel=1
sample=4Trumpets_staccato_FF_B5_RR2.opus
</region>

<region>
hivel=127
key=B4
lovel=1
offset=14
sample=4Trumpets_staccato_FF_B4_RR2.opus
</region>

<region>
hivel=127
key=B3
lovel=1
offset=924
sample=4Trumpets_staccato_FF_B3_RR2.opus
</region>

<region>
hivel=127
key=A5
lovel=1
sample=4Trumpets_staccato_FF_A5_RR2.opus
</region>

<region>
hivel=127
key=A4
lovel=1
sample=4Trumpets_staccato_FF_A4_RR2.opus
</region>

<region>
hivel=127
key=A3
lovel=1
offset=659
sample=4Trumpets_staccato_FF_A3_RR2.opus
</region>

<region>
hivel=127
key=A#5
lovel=1
offset=1158
sample=4Trumpets_staccato_FF_A#5_RR2.opus
</region>

<region>
hivel=127
key=A#4
lovel=1
offset=277
sample=4Trumpets_staccato_FF_A#4_RR2.opus
</region>

<region>
hivel=127
key=A#3
lovel=1
offset=404
sample=4Trumpets_staccato_FF_A#3_RR2.opus
</region>
</group>

<group>
ampeg_release=1.25
group_label=RR2_43-84
seq_length=4
seq_position=2
xfin_hicc1=84
xfin_locc1=43
xfout_hicc1=125
xfout_locc1=84

<region>
hivel=127
key=G5
lovel=1
offset=68
sample=4Trumpets_staccato_MF_G5_RR2.opus
</region>

<region>
hivel=127
key=G4
lovel=1
offset=265
sample=4Trumpets_staccato_MF_G4_RR2.opus
</region>

<region>
hivel=127
key=G3
lovel=1
offset=593
sample=4Trumpets_staccato_MF_G3_RR2.opus
</region>

<region>
hivel=127
key=G#5
lovel=1
offset=38
sample=4Trumpets_staccato_MF_G#5_RR2.opus
</region>

<region>
hivel=127
key=G#4
lovel=1
sample=4Trumpets_staccato_MF_G#4_RR2.opus
</region>

<region>
hivel=127
key=G#3
lovel=1
offset=357
sample=4Trumpets_staccato_MF_G#3_RR2.opus
</region>

<region>
hivel=127
key=F5
lovel=1
offset=6224
sample=4Trumpets_staccato_MF_F5_RR2.opus
</region>

<region>
hivel=127
key=F4
lovel=1
offset=728
sample=4Trumpets_staccato_MF_F4_RR2.opus
</region>

<region>
hivel=127
key=F#5
lovel=1
offset=174
sample=4Trumpets_staccato_MF_F#5_RR2.opus
</region>

<region>
hivel=127
key=F#4
lovel=1
offset=291
sample=4Trumpets_staccato_MF_F#4_RR2.opus
</region>

<region>
hivel=127
key=F#3
lovel=1
offset=5274
sample=4Trumpets_staccato_MF_F#3_RR2.opus
</region>

<region>
hivel=127
key=E5
lovel=1
offset=1071
sample=4Trumpets_staccato_MF_E5_RR2.opus
</region>

<region>
hivel=127
key=E4
lovel=1
offset=794
sample=4Trumpets_staccato_MF_E4_RR2.opus
</region>

<region>
hivel=127
key=D5
lovel=1
offset=86
sample=4Trumpets_staccato_MF_D5_RR2.opus
</region>

<region>
hivel=127
key=D4
lovel=1
offset=1289
sample=4Trumpets_staccato_MF_D4_RR2.opus
</region>

<region>
hivel=127
key=D#5
lovel=1
offset=1701
sample=4Trumpets_staccato_MF_D#5_RR2.opus
</region>

<region>
hivel=127
key=D#4
lovel=1
sample=4Trumpets_staccato_MF_D#4_RR2.opus
</region>

<region>
hivel=127
key=C6
lovel=1
sample=4Trumpets_staccato_MF_C6_RR2.opus
</region>

<region>
hivel=127
key=C5
lovel=1
offset=1092
sample=4Trumpets_staccato_MF_C5_RR2.opus
</region>

<region>
hikey=C4
hivel=127
lokey=C4
lovel=1
offset=470
sample=4Trumpets_staccato_MF_C4_RR2.opus
</region>

<region>
hivel=127
key=C#5
lovel=1
offset=991
sample=4Trumpets_staccato_MF_C#5_RR2.opus
</region>

<region>
hivel=127
key=C#4
lovel=1
offset=1025
sample=4Trumpets_staccato_MF_C#4_RR2.opus
</region>

<region>
hivel=127
key=B5
lovel=1
offset=707
sample=4Trumpets_staccato_MF_B5_RR2.opus
</region>

<region>
hivel=127
key=B4
lovel=1
offset=492
sample=4Trumpets_staccato_MF_B4_RR2.opus
</region>

<region>
hivel=127
key=B3
lovel=1
offset=1000
sample=4Trumpets_staccato_MF_B3_RR2.opus
</region>

<region>
hivel=127
key=A5
lovel=1
offset=246
sample=4Trumpets_staccato_MF_A5_RR2.opus
</region>

<region>
hivel=127
key=A4
lovel=1
offset=64
sample=4Trumpets_staccato_MF_A4_RR2.opus
</region>

<region>
hivel=127
key=A3
lovel=1
offset=428
sample=4Trumpets_staccato_MF_A3_RR2.opus
</region>

<region>
hivel=127
key=A#5
lovel=1
offset=254
sample=4Trumpets_staccato_MF_A#5_RR2.opus
</region>

<region>
hivel=127
key=A#4
lovel=1
offset=188
sample=4Trumpets_staccato_MF_A#4_RR2.opus
</region>

<region>
hivel=127
key=A#3
lovel=1
offset=352
sample=4Trumpets_staccato_MF_A#3_RR2.opus
</region>
</group>

<group>
ampeg_release=1.25
group_label=RR3_0-42
seq_length=4
seq_position=3
xfin_hicc1=42
xfout_hicc1=84
xfout_locc1=42

<region>
hivel=127
key=G5
lovel=1
offset=265
sample=4Trumpets_staccato_PP_G5_RR3.opus
</region>

<region>
hivel=127
key=G4
lovel=1
offset=142
sample=4Trumpets_staccato_PP_G4_RR3.opus
</region>

<region>
hivel=127
key=G3
lovel=1
offset=2737
sample=4Trumpets_staccato_PP_G3_RR3.opus
</region>

<region>
hivel=127
key=G#5
lovel=1
offset=498
sample=4Trumpets_staccato_PP_G#5_RR3.opus
</region>

<region>
hivel=127
key=G#4
lovel=1
sample=4Trumpets_staccato_PP_G#4_RR3.opus
</region>

<region>
hivel=127
key=G#3
lovel=1
offset=7893
sample=4Trumpets_staccato_PP_G#3_RR3.opus
</region>

<region>
hivel=127
key=F5
lovel=1
sample=4Trumpets_staccato_PP_F5_RR3.opus
</region>

<region>
hivel=127
key=F4
lovel=1
sample=4Trumpets_staccato_PP_F4_RR3.opus
</region>

<region>
hivel=127
key=F#5
lovel=1
offset=1018
sample=4Trumpets_staccato_PP_F#5_RR3.opus
</region>

<region>
hivel=127
key=F#4
lovel=1
offset=46
sample=4Trumpets_staccato_PP_F#4_RR3.opus
</region>

<region>
hivel=127
key=F#3
lovel=1
offset=606
sample=4Trumpets_staccato_PP_F#3_RR3.opus
</region>

<region>
hivel=127
key=E5
lovel=1
offset=3532
sample=4Trumpets_staccato_PP_E5_RR3.opus
</region>

<region>
hivel=127
key=E4
lovel=1
offset=514
sample=4Trumpets_staccato_PP_E4_RR3.opus
</region>

<region>
hivel=127
key=D5
lovel=1
offset=14
sample=4Trumpets_staccato_PP_D5_RR3.opus
</region>

<region>
hivel=127
key=D4
lovel=1
offset=99
sample=4Trumpets_staccato_PP_D4_RR3.opus
</region>

<region>
hivel=127
key=D#5
lovel=1
offset=135
sample=4Trumpets_staccato_PP_D#5_RR3.opus
</region>

<region>
hivel=127
key=D#4
lovel=1
sample=4Trumpets_staccato_PP_D#4_RR3.opus
</region>

<region>
hivel=127
key=C6
lovel=1
sample=4Trumpets_staccato_PP_C6_RR3.opus
</region>

<region>
hivel=127
key=C5
lovel=1
offset=567
sample=4Trumpets_staccato_PP_C5_RR3.opus
</region>

<region>
hikey=C4
hivel=127
lokey=C4
lovel=1
offset=608
sample=4Trumpets_staccato_PP_C4_RR3.opus
</region>

<region>
hivel=127
key=C#5
lovel=1
sample=4Trumpets_staccato_PP_C#5_RR3.opus
</region>

<region>
hivel=127
key=C#4
lovel=1
offset=1089
sample=4Trumpets_staccato_PP_C#4_RR3.opus
</region>

<region>
hivel=127
key=B5
lovel=1
offset=435
sample=4Trumpets_staccato_PP_B5_RR3.opus
</region>

<region>
hivel=127
key=B4
lovel=1
sample=4Trumpets_staccato_PP_B4_RR3.opus
</region>

<region>
hivel=127
key=B3
lovel=1
offset=296
sample=4Trumpets_staccato_PP_B3_RR3.opus
</region>

<region>
hivel=127
key=A5
lovel=1
offset=19
sample=4Trumpets_staccato_PP_A5_RR3.opus
</region>

<region>
hivel=127
key=A4
lovel=1
sample=4Trumpets_staccato_PP_A4_RR3.opus
</region>

<region>
hivel=127
key=A3
lovel=1
offset=111
sample=4Trumpets_staccato_PP_A3_RR3.opus
</region>

<region>
hivel=127
key=A#5
lovel=1
offset=277
sample=4Trumpets_staccato_PP_A#5_RR3.opus
</region>

<region>
hivel=127
key=A#4
lovel=1
offset=70
sample=4Trumpets_staccato_PP_A#4_RR3.opus
</region>

<region>
hivel=127
key=A#3
lovel=1
offset=71
sample=4Trumpets_staccato_PP_A#3_RR3.opus
</region>
</group>

<group>
ampeg_release=1.25
group_label=RR3_85-127
seq_length=4
seq_position=3
xfin_hicc1=127
xfin_locc1=85
xfout_hicc1=127
xfout_locc1=127

<region>
hivel=127
key=G5
lovel=1
offset=2299
sample=4Trumpets_staccato_FF_G5_RR3.opus
</region>

<region>
hivel=127
key=G4
lovel=1
offset=7
sample=4Trumpets_staccato_FF_G4_RR3.opus
</region>

<region>
hivel=127
key=G3
lovel=1
offset=1880
sample=4Trumpets_staccato_FF_G3_RR3.opus
</region>

<region>
hivel=127
key=G#5
lovel=1
offset=405
sample=4Trumpets_staccato_FF_G#5_RR3.opus
</region>

<region>
hivel=127
key=G#4
lovel=1
sample=4Trumpets_staccato_FF_G#4_RR3.opus
</region>

<region>
hivel=127
key=G#3
lovel=1
offset=244
sample=4Trumpets_staccato_FF_G#3_RR3.opus
</region>

<region>
hivel=127
key=F5
lovel=1
offset=5615
sample=4Trumpets_staccato_FF_F5_RR3.opus
</region>

<region>
hivel=127
key=F4
lovel=1
offset=504
sample=4Trumpets_staccato_FF_F4_RR3.opus
</region>

<region>
hivel=127
key=F#5
lovel=1
offset=2612
sample=4Trumpets_staccato_FF_F#5_RR3.opus
</region>

<region>
hivel=127
key=F#4
lovel=1
offset=158
sample=4Trumpets_staccato_FF_F#4_RR3.opus
</region>

<region>
hivel=127
key=F#3
lovel=1
offset=457
sample=4Trumpets_staccato_FF_F#3_RR3.opus
</region>

<region>
hivel=127
key=E5
lovel=1
offset=805
sample=4Trumpets_staccato_FF_E5_RR3.opus
</region>

<region>
hivel=127
key=E4
lovel=1
offset=216
sample=4Trumpets_staccato_FF_E4_RR3.opus
</region>

<region>
hivel=127
key=D5
lovel=1
offset=123
sample=4Trumpets_staccato_FF_D5_RR3.opus
</region>

<region>
hivel=127
key=D4
lovel=1
offset=380
sample=4Trumpets_staccato_FF_D4_RR3.opus
</region>

<region>
hivel=127
key=D#5
lovel=1
offset=293
sample=4Trumpets_staccato_FF_D#5_RR3.opus
</region>

<region>
hivel=127
key=D#4
lovel=1
offset=2847
sample=4Trumpets_staccato_FF_D#4_RR3.opus
</region>

<region>
hivel=127
key=C6
lovel=1
sample=4Trumpets_staccato_FF_C6_RR3.opus
</region>

<region>
hivel=127
key=C5
lovel=1
sample=4Trumpets_staccato_FF_C5_RR3.opus
</region>

<region>
hikey=C4
hivel=127
lokey=C4
lovel=1
offset=436
sample=4Trumpets_staccato_FF_C4_RR3.opus
</region>

<region>
hivel=127
key=C#5
lovel=1
offset=1162
sample=4Trumpets_staccato_FF_C#5_RR3.opus
</region>

<region>
hivel=127
key=C#4
lovel=1
offset=1274
sample=4Trumpets_staccato_FF_C#4_RR3.opus
</region>

<region>
hivel=127
key=B5
lovel=1
offset=322
sample=4Trumpets_staccato_FF_B5_RR3.opus
</region>

<region>
hivel=127
key=B4
lovel=1
sample=4Trumpets_staccato_FF_B4_RR3.opus
</region>

<region>
hivel=127
key=B3
lovel=1
offset=1867
sample=4Trumpets_staccato_FF_B3_RR3.opus
</region>

<region>
hivel=127
key=A5
lovel=1
offset=153
sample=4Trumpets_staccato_FF_A5_RR3.opus
</region>

<region>
hivel=127
key=A4
lovel=1
offset=194
sample=4Trumpets_staccato_FF_A4_RR3.opus
</region>

<region>
hivel=127
key=A3
lovel=1
offset=394
sample=4Trumpets_staccato_FF_A3_RR3.opus
</region>

<region>
hivel=127
key=A#5
lovel=1
offset=619
sample=4Trumpets_staccato_FF_A#5_RR3.opus
</region>

<region>
hivel=127
key=A#4
lovel=1
offset=360
sample=4Trumpets_staccato_FF_A#4_RR3.opus
</region>

<region>
hivel=127
key=A#3
lovel=1
offset=536
sample=4Trumpets_staccato_FF_A#3_RR3.opus
</region>
</group>

<group>
ampeg_release=1.25
group_label=RR3_43-84
seq_length=4
seq_position=3
xfin_hicc1=84
xfin_locc1=43
xfout_hicc1=125
xfout_locc1=84

<region>
hivel=127
key=G5
lovel=1
sample=4Trumpets_staccato_MF_G5_RR3.opus
</region>

<region>
hivel=127
key=G4
lovel=1
offset=400
sample=4Trumpets_staccato_MF_G4_RR3.opus
</region>

<region>
hivel=127
key=G3
lovel=1
offset=248
sample=4Trumpets_staccato_MF_G3_RR3.opus
</region>

<region>
hivel=127
key=G#5
lovel=1
offset=1027
sample=4Trumpets_staccato_MF_G#5_RR3.opus
</region>

<region>
hivel=127
key=G#4
lovel=1
offset=577
sample=4Trumpets_staccato_MF_G#4_RR3.opus
</region>

<region>
hivel=127
key=G#3
lovel=1
offset=808
sample=4Trumpets_staccato_MF_G#3_RR3.opus
</region>

<region>
hivel=127
key=F5
lovel=1
offset=210
sample=4Trumpets_staccato_MF_F5_RR3.opus
</region>

<region>
hivel=127
key=F4
lovel=1
offset=1261
sample=4Trumpets_staccato_MF_F4_RR3.opus
</region>

<region>
hivel=127
key=F#5
lovel=1
offset=2013
sample=4Trumpets_staccato_MF_F#5_RR3.opus
</region>

<region>
hivel=127
key=F#4
lovel=1
offset=561
sample=4Trumpets_staccato_MF_F#4_RR3.opus
</region>

<region>
hivel=127
key=F#3
lovel=1
offset=315
sample=4Trumpets_staccato_MF_F#3_RR3.opus
</region>

<region>
hivel=127
key=E5
lovel=1
offset=1318
sample=4Trumpets_staccato_MF_E5_RR3.opus
</region>

<region>
hivel=127
key=E4
lovel=1
offset=1784
sample=4Trumpets_staccato_MF_E4_RR3.opus
</region>

<region>
hivel=127
key=D5
lovel=1
offset=940
sample=4Trumpets_staccato_MF_D5_RR3.opus
</region>

<region>
hivel=127
key=D4
lovel=1
offset=974
sample=4Trumpets_staccato_MF_D4_RR3.opus
</region>

<region>
hivel=127
key=D#5
lovel=1
offset=157
sample=4Trumpets_staccato_MF_D#5_RR3.opus
</region>

<region>
hivel=127
key=D#4
lovel=1
offset=4
sample=4Trumpets_staccato_MF_D#4_RR3.opus
</region>

<region>
hivel=127
key=C6
lovel=1
offset=669
sample=4Trumpets_staccato_MF_C6_RR3.opus
</region>

<region>
hivel=127
key=C5
lovel=1
offset=741
sample=4Trumpets_staccato_MF_C5_RR3.opus
</region>

<region>
hikey=C4
hivel=127
lokey=C4
lovel=1
offset=1193
sample=4Trumpets_staccato_MF_C4_RR3.opus
</region>

<region>
hivel=127
key=C#5
lovel=1
offset=220
sample=4Trumpets_staccato_MF_C#5_RR3.opus
</region>

<region>
hivel=127
key=C#4
lovel=1
offset=1166
sample=4Trumpets_staccato_MF_C#4_RR3.opus
</region>

<region>
hivel=127
key=B5
lovel=1
offset=3
sample=4Trumpets_staccato_MF_B5_RR3.opus
</region>

<region>
hivel=127
key=B4
lovel=1
offset=602
sample=4Trumpets_staccato_MF_B4_RR3.opus
</region>

<region>
hivel=127
key=B3
lovel=1
offset=573
sample=4Trumpets_staccato_MF_B3_RR3.opus
</region>

<region>
hivel=127
key=A5
lovel=1
offset=485
sample=4Trumpets_staccato_MF_A5_RR3.opus
</region>

<region>
hivel=127
key=A4
lovel=1
offset=173
sample=4Trumpets_staccato_MF_A4_RR3.opus
</region>

<region>
hivel=127
key=A3
lovel=1
offset=1090
sample=4Trumpets_staccato_MF_A3_RR3.opus
</region>

<region>
hivel=127
key=A#5
lovel=1
sample=4Trumpets_staccato_MF_A#5_RR3.opus
</region>

<region>
hivel=127
key=A#4
lovel=1
offset=139
sample=4Trumpets_staccato_MF_A#4_RR3.opus
</region>

<region>
hivel=127
key=A#3
lovel=1
offset=688
sample=4Trumpets_staccato_MF_A#3_RR3.opus
</region>
</group>

<group>
ampeg_release=1.25
group_label=RR4_0-42
seq_length=4
seq_position=4
xfin_hicc1=42
xfout_hicc1=84
xfout_locc1=42

<region>
hivel=127
key=G5
lovel=1
sample=4Trumpets_staccato_PP_G5_RR4.opus
</region>

<region>
hivel=127
key=G4
lovel=1
offset=1352
sample=4Trumpets_staccato_PP_G4_RR4.opus
</region>

<region>
hivel=127
key=G3
lovel=1
offset=1578
sample=4Trumpets_staccato_PP_G3_RR4.opus
</region>

<region>
hivel=127
key=G#5
lovel=1
offset=1044
sample=4Trumpets_staccato_PP_G#5_RR4.opus
</region>

<region>
hivel=127
key=G#4
lovel=1
offset=196
sample=4Trumpets_staccato_PP_G#4_RR4.opus
</region>

<region>
hivel=127
key=G#3
lovel=1
offset=1061
sample=4Trumpets_staccato_PP_G#3_RR4.opus
</region>

<region>
hivel=127
key=F5
lovel=1
offset=696
sample=4Trumpets_staccato_PP_F5_RR4.opus
</region>

<region>
hivel=127
key=F4
lovel=1
offset=76
sample=4Trumpets_staccato_PP_F4_RR4.opus
</region>

<region>
hivel=127
key=F#5
lovel=1
sample=4Trumpets_staccato_PP_F#5_RR4.opus
</region>

<region>
hivel=127
key=F#4
lovel=1
offset=153
sample=4Trumpets_staccato_PP_F#4_RR4.opus
</region>

<region>
hivel=127
key=F#3
lovel=1
offset=197
sample=4Trumpets_staccato_PP_F#3_RR4.opus
</region>

<region>
hivel=127
key=E5
lovel=1
offset=5758
sample=4Trumpets_staccato_PP_E5_RR4.opus
</region>

<region>
hivel=127
key=E4
lovel=1
offset=227
sample=4Trumpets_staccato_PP_E4_RR4.opus
</region>

<region>
hivel=127
key=D5
lovel=1
offset=120
sample=4Trumpets_staccato_PP_D5_RR4.opus
</region>

<region>
hivel=127
key=D4
lovel=1
sample=4Trumpets_staccato_PP_D4_RR4.opus
</region>

<region>
hivel=127
key=D#5
lovel=1
sample=4Trumpets_staccato_PP_D#5_RR4.opus
</region>

<region>
hivel=127
key=D#4
lovel=1
offset=141
sample=4Trumpets_staccato_PP_D#4_RR4.opus
</region>

<region>
hivel=127
key=C6
lovel=1
sample=4Trumpets_staccato_PP_C6_RR4.opus
</region>

<region>
hivel=127
key=C5
lovel=1
offset=171
sample=4Trumpets_staccato_PP_C5_RR4.opus
</region>

<region>
hikey=C4
hivel=127
lokey=C4
lovel=1
sample=4Trumpets_staccato_PP_C4_RR4.opus
</region>

<region>
hivel=127
key=C#5
lovel=1
offset=467
sample=4Trumpets_staccato_PP_C#5_RR4.opus
</region>

<region>
hivel=127
key=C#4
lovel=1
offset=235
sample=4Trumpets_staccato_PP_C#4_RR4.opus
</region>

<region>
hivel=127
key=B5
lovel=1
sample=4Trumpets_staccato_PP_B5_RR4.opus
</region>

<region>
hivel=127
key=B4
lovel=1
offset=112
sample=4Trumpets_staccato_PP_B4_RR4.opus
</region>

<region>
hivel=127
key=B3
lovel=1
offset=600
sample=4Trumpets_staccato_PP_B3_RR4.opus
</region>

<region>
hivel=127
key=A5
lovel=1
offset=124
sample=4Trumpets_staccato_PP_A5_RR4.opus
</region>

<region>
hivel=127
key=A4
lovel=1
offset=172
sample=4Trumpets_staccato_PP_A4_RR4.opus
</region>

<region>
hivel=127
key=A3
lovel=1
offset=61
sample=4Trumpets_staccato_PP_A3_RR4.opus
</region>

<region>
hivel=127
key=A#5
lovel=1
sample=4Trumpets_staccato_PP_A#5_RR4.opus
</region>

<region>
hivel=127
key=A#4
lovel=1
offset=148
sample=4Trumpets_staccato_PP_A#4_RR4.opus
</region>

<region>
hivel=127
key=A#3
lovel=1
sample=4Trumpets_staccato_PP_A#3_RR4.opus
</region>
</group>

<group>
ampeg_release=1.25
group_label=RR4_85-127
seq_length=4
seq_position=4
xfin_hicc1=127
xfin_locc1=85
xfout_hicc1=127
xfout_locc1=127

<region>
hivel=127
key=G5
lovel=1
offset=630
sample=4Trumpets_staccato_FF_G5_RR4.opus
</region>

<region>
hivel=127
key=G4
lovel=1
offset=140
sample=4Trumpets_staccato_FF_G4_RR4.opus
</region>

<region>
hivel=127
key=G3
lovel=1
offset=307
sample=4Trumpets_staccato_FF_G3_RR4.opus
</region>

<region>
hivel=127
key=G#5
lovel=1
offset=513
sample=4Trumpets_staccato_FF_G#5_RR4.opus
</region>

<region>
hivel=127
key=G#4
lovel=1
sample=4Trumpets_staccato_FF_G#4_RR4.opus
</region>

<region>
hivel=127
key=G#3
lovel=1
offset=657
sample=4Trumpets_staccato_FF_G#3_RR4.opus
</region>

<region>
hivel=127
key=F5
lovel=1
offset=343
sample=4Trumpets_staccato_FF_F5_RR4.opus
</region>

<region>
hivel=127
key=F4
lovel=1
sample=4Trumpets_staccato_FF_F4_RR4.opus
</region>

<region>
hivel=127
key=F#5
lovel=1
offset=298
sample=4Trumpets_staccato_FF_F#5_RR4.opus
</region>

<region>
hivel=127
key=F#4
lovel=1
offset=48
sample=4Trumpets_staccato_FF_F#4_RR4.opus
</region>

<region>
hivel=127
key=F#3
lovel=1
offset=1555
sample=4Trumpets_staccato_FF_F#3_RR4.opus
</region>

<region>
hivel=127
key=E5
lovel=1
offset=1148
sample=4Trumpets_staccato_FF_E5_RR4.opus
</region>

<region>
hivel=127
key=E4
lovel=1
offset=224
sample=4Trumpets_staccato_FF_E4_RR4.opus
</region>

<region>
hivel=127
key=D5
lovel=1
offset=274
sample=4Trumpets_staccato_FF_D5_RR4.opus
</region>

<region>
hivel=127
key=D4
lovel=1
offset=1045
sample=4Trumpets_staccato_FF_D4_RR4.opus
</region>

<region>
hivel=127
key=D#5
lovel=1
offset=307
sample=4Trumpets_staccato_FF_D#5_RR4.opus
</region>

<region>
hivel=127
key=D#4
lovel=1
offset=155
sample=4Trumpets_staccato_FF_D#4_RR4.opus
</region>

<region>
hivel=127
key=C6
lovel=1
offset=158
sample=4Trumpets_staccato_FF_C6_RR4.opus
</region>

<region>
hivel=127
key=C5
lovel=1
offset=19
sample=4Trumpets_staccato_FF_C5_RR4.opus
</region>

<region>
hikey=C4
hivel=127
lokey=C4
lovel=1
offset=462
sample=4Trumpets_staccato_FF_C4_RR4.opus
</region>

<region>
hivel=127
key=C#5
lovel=1
offset=182
sample=4Trumpets_staccato_FF_C#5_RR4.opus
</region>

<region>
hivel=127
key=C#4
lovel=1
offset=393
sample=4Trumpets_staccato_FF_C#4_RR4.opus
</region>

<region>
hivel=127
key=B5
lovel=1
offset=259
sample=4Trumpets_staccato_FF_B5_RR4.opus
</region>

<region>
hivel=127
key=B4
lovel=1
sample=4Trumpets_staccato_FF_B4_RR4.opus
</region>

<region>
hivel=127
key=B3
lovel=1
offset=1504
sample=4Trumpets_staccato_FF_B3_RR4.opus
</region>

<region>
hivel=127
key=A5
lovel=1
offset=969
sample=4Trumpets_staccato_FF_A5_RR4.opus
</region>

<region>
hivel=127
key=A4
lovel=1
sample=4Trumpets_staccato_FF_A4_RR4.opus
</region>

<region>
hikey=A#3
hivel=127
lokey=A3
lovel=1
offset=2
pitch_keycenter=A3
sample=4Trumpets_staccato_FF_A3_RR4.opus
</region>

<region>
hivel=127
key=A#5
lovel=1
offset=55
sample=4Trumpets_staccato_FF_A#5_RR4.opus
</region>

<region>
hivel=127
key=A#4
lovel=1
offset=57
sample=4Trumpets_staccato_FF_A#4_RR4.opus
</region>
</group>

<group>
ampeg_release=1.25
group_label=RR4_43-84
seq_length=4
seq_position=4
xfin_hicc1=84
xfin_locc1=43
xfout_hicc1=125
xfout_locc1=84

<region>
hivel=127
key=G5
lovel=1
offset=130
sample=4Trumpets_staccato_MF_G5_RR4.opus
</region>

<region>
hivel=127
key=G4
lovel=1
offset=511
sample=4Trumpets_staccato_MF_G4_RR4.opus
</region>

<region>
hivel=127
key=G3
lovel=1
offset=1369
sample=4Trumpets_staccato_MF_G3_RR4.opus
</region>

<region>
hivel=127
key=G#5
lovel=1
offset=923
sample=4Trumpets_staccato_MF_G#5_RR4.opus
</region>

<region>
hivel=127
key=G#4
lovel=1
offset=221
sample=4Trumpets_staccato_MF_G#4_RR4.opus
</region>

<region>
hivel=127
key=G#3
lovel=1
offset=721
sample=4Trumpets_staccato_MF_G#3_RR4.opus
</region>

<region>
hivel=127
key=F5
lovel=1
offset=147
sample=4Trumpets_staccato_MF_F5_RR4.opus
</region>

<region>
hivel=127
key=F4
lovel=1
sample=4Trumpets_staccato_MF_F4_RR4.opus
</region>

<region>
hivel=127
key=F#5
lovel=1
offset=52
sample=4Trumpets_staccato_MF_F#5_RR4.opus
</region>

<region>
hivel=127
key=F#4
lovel=1
offset=777
sample=4Trumpets_staccato_MF_F#4_RR4.opus
</region>

<region>
hivel=127
key=F#3
lovel=1
offset=612
sample=4Trumpets_staccato_MF_F#3_RR4.opus
</region>

<region>
hivel=127
key=E5
lovel=1
offset=823
sample=4Trumpets_staccato_MF_E5_RR4.opus
</region>

<region>
hivel=127
key=E4
lovel=1
offset=249
sample=4Trumpets_staccato_MF_E4_RR4.opus
</region>

<region>
hivel=127
key=D5
lovel=1
offset=87
sample=4Trumpets_staccato_MF_D5_RR4.opus
</region>

<region>
hivel=127
key=D4
lovel=1
offset=840
sample=4Trumpets_staccato_MF_D4_RR4.opus
</region>

<region>
hivel=127
key=D#5
lovel=1
offset=63
sample=4Trumpets_staccato_MF_D#5_RR4.opus
</region>

<region>
hivel=127
key=D#4
lovel=1
offset=367
sample=4Trumpets_staccato_MF_D#4_RR4.opus
</region>

<region>
hivel=127
key=C6
lovel=1
sample=4Trumpets_staccato_MF_C6_RR4.opus
</region>

<region>
hivel=127
key=C5
lovel=1
offset=395
sample=4Trumpets_staccato_MF_C5_RR4.opus
</region>

<region>
hikey=C4
hivel=127
lokey=C4
lovel=1
offset=941
sample=4Trumpets_staccato_MF_C4_RR4.opus
</region>

<region>
hivel=127
key=C#5
lovel=1
offset=1532
sample=4Trumpets_staccato_MF_C#5_RR4.opus
</region>

<region>
hivel=127
key=C#4
lovel=1
sample=4Trumpets_staccato_MF_C#4_RR4.opus
</region>

<region>
hivel=127
key=B5
lovel=1
offset=573
sample=4Trumpets_staccato_MF_B5_RR4.opus
</region>

<region>
hivel=127
key=B4
lovel=1
sample=4Trumpets_staccato_MF_B4_RR4.opus
</region>

<region>
hivel=127
key=B3
lovel=1
offset=1166
sample=4Trumpets_staccato_MF_B3_RR4.opus
</region>

<region>
hivel=127
key=A5
lovel=1
offset=528
sample=4Trumpets_staccato_MF_A5_RR4.opus
</region>

<region>
hivel=127
key=A4
lovel=1
offset=299
sample=4Trumpets_staccato_MF_A4_RR4.opus
</region>

<region>
hivel=127
key=A3
lovel=1
offset=200
sample=4Trumpets_staccato_MF_A3_RR4.opus
</region>

<region>
hivel=127
key=A#5
lovel=1
sample=4Trumpets_staccato_MF_A#5_RR4.opus
</region>

<region>
hivel=127
key=A#4
lovel=1
offset=175
sample=4Trumpets_staccato_MF_A#4_RR4.opus
</region>

<region>
hivel=127
key=A#3
lovel=1
offset=360
sample=4Trumpets_staccato_MF_A#3_RR4.opus
</region>
</group>

<group>
ampeg_release=0.25
group_label=Group_43-84
xfin_hicc1=84
xfin_locc1=43
xfout_hicc1=125
xfout_locc1=84

<region>
hikey=G#5
hivel=127
lokey=G5
lovel=1
pitch_keycenter=G#5
sample=4Trumpets_tenuto_whole_MF_G#5.opus
</region>

<region>
hikey=G#4
hivel=127
lokey=G4
lovel=1
pitch_keycenter=G#4
sample=4Trumpets_tenuto_whole_MF_G#4.opus
</region>

<region>
hikey=G#3
hivel=127
lokey=G3
lovel=1
pitch_keycenter=G#3
sample=4Trumpets_tenuto_whole_MF_G#3.opus
</region>

<region>
hikey=F#5
hivel=127
lokey=F5
lovel=1
pitch_keycenter=F#5
sample=4Trumpets_tenuto_whole_MF_F#5.opus
</region>

<region>
hikey=F#4
hivel=127
lokey=F4
lovel=1
pitch_keycenter=F#4
sample=4Trumpets_tenuto_whole_MF_F#4.opus
</region>

<region>
hivel=127
key=F#3
lovel=1
sample=4Trumpets_tenuto_whole_MF_F#3.opus
</region>

<region>
hikey=E5
hivel=127
lokey=D#5
lovel=1
pitch_keycenter=E5
sample=4Trumpets_tenuto_whole_MF_E5.opus
</region>

<region>
hikey=E4
hivel=127
lokey=D#4
lovel=1
pitch_keycenter=E4
sample=4Trumpets_tenuto_whole_MF_E4.opus
</region>

<region>
hikey=D5
hivel=127
lokey=C#5
lovel=1
pitch_keycenter=D5
sample=4Trumpets_tenuto_whole_MF_D5.opus
</region>

<region>
hikey=D4
hivel=127
lokey=C#4
lovel=1
pitch_keycenter=D4
sample=4Trumpets_tenuto_whole_MF_D4.opus
</region>

<region>
hikey=C6
hivel=127
lokey=B5
lovel=1
pitch_keycenter=C6
sample=4Trumpets_tenuto_whole_MF_C6.opus
</region>

<region>
hikey=C5
hivel=127
lokey=B4
lovel=1
pitch_keycenter=C5
sample=4Trumpets_tenuto_whole_MF_C5.opus
</region>

<region>
hikey=C4
hivel=127
lokey=B3
lovel=1
sample=4Trumpets_tenuto_whole_MF_C4.opus
</region>

<region>
hikey=A#5
hivel=127
lokey=A5
lovel=1
pitch_keycenter=A#5
sample=4Trumpets_tenuto_whole_MF_A#5.opus
</region>

<region>
hikey=A#4
hivel=127
lokey=A4
lovel=1
pitch_keycenter=A#4
sample=4Trumpets_tenuto_whole_MF_A#4.opus
</region>

<region>
hikey=A#3
hivel=127
lokey=A3
lovel=1
pitch_keycenter=A#3
sample=4Trumpets_tenuto_whole_MF_A#3.opus
</region>
</group>

<group>
ampeg_release=0.25
group_label=Group_85-127
xfin_hicc1=127
xfin_locc1=85
xfout_hicc1=127
xfout_locc1=127

<region>
hikey=G#5
hivel=127
lokey=G5
lovel=1
pitch_keycenter=G#5
sample=4Trumpets_tenuto_whole_FF_G#5.opus
</region>

<region>
hikey=G#4
hivel=127
lokey=G4
lovel=1
pitch_keycenter=G#4
sample=4Trumpets_tenuto_whole_FF_G#4.opus
</region>

<region>
hikey=G#3
hivel=127
lokey=G3
lovel=1
pitch_keycenter=G#3
sample=4Trumpets_tenuto_whole_FF_G#3.opus
</region>

<region>
hikey=F#5
hivel=127
lokey=F5
lovel=1
pitch_keycenter=F#5
sample=4Trumpets_tenuto_whole_FF_F#5.opus
</region>

<region>
hikey=F#4
hivel=127
lokey=F4
lovel=1
pitch_keycenter=F#4
sample=4Trumpets_tenuto_whole_FF_F#4.opus
</region>

<region>
hivel=127
key=F#3
lovel=1
sample=4Trumpets_tenuto_whole_FF_F#3.opus
</region>

<region>
hikey=E5
hivel=127
lokey=D#5
lovel=1
pitch_keycenter=E5
sample=4Trumpets_tenuto_whole_FF_E5.opus
</region>

<region>
hikey=E4
hivel=127
lokey=D#4
lovel=1
pitch_keycenter=E4
sample=4Trumpets_tenuto_whole_FF_E4.opus
</region>

<region>
hikey=D5
hivel=127
lokey=C#5
lovel=1
pitch_keycenter=D5
sample=4Trumpets_tenuto_whole_FF_D5.opus
</region>

<region>
hikey=D4
hivel=127
lokey=C#4
lovel=1
pitch_keycenter=D4
sample=4Trumpets_tenuto_whole_FF_D4.opus
</region>

<region>
hikey=C6
hivel=127
lokey=B5
lovel=1
pitch_keycenter=C6
sample=4Trumpets_tenuto_whole_FF_C6.opus
</region>

<region>
hikey=C5
hivel=127
lokey=B4
lovel=1
pitch_keycenter=C5
sample=4Trumpets_tenuto_whole_FF_C5.opus
</region>

<region>
hikey=C4
hivel=127
lokey=B3
lovel=1
sample=4Trumpets_tenuto_whole_FF_C4.opus
</region>

<region>
hikey=A#5
hivel=127
lokey=A5
lovel=1
pitch_keycenter=A#5
sample=4Trumpets_tenuto_whole_FF_A#5.opus
</region>

<region>
hikey=A#4
hivel=127
lokey=A4
lovel=1
pitch_keycenter=A#4
sample=4Trumpets_tenuto_whole_FF_A#4.opus
</region>

<region>
hikey=A#3
hivel=127
lokey=A3
lovel=1
pitch_keycenter=A#3
sample=4Trumpets_tenuto_whole_FF_A#3.opus
</region>
</group>

<group>
ampeg_release=0.25
group_label=Group_0-42
xfin_hicc1=42
xfout_hicc1=84
xfout_locc1=42

<region>
hikey=G#5
hivel=127
lokey=G5
lovel=1
pitch_keycenter=G#5
sample=4Trumpets_tenuto_whole_PP_G#5.opus
</region>

<region>
hikey=G#4
hivel=127
lokey=G4
lovel=1
pitch_keycenter=G#4
sample=4Trumpets_tenuto_whole_PP_G#4.opus
</region>

<region>
hikey=G#3
hivel=127
lokey=G3
lovel=1
pitch_keycenter=G#3
sample=4Trumpets_tenuto_whole_PP_G#3.opus
</region>

<region>
hikey=F#5
hivel=127
lokey=F5
lovel=1
pitch_keycenter=F#5
sample=4Trumpets_tenuto_whole_PP_F#5.opus
</region>

<region>
hikey=F#4
hivel=127
lokey=F4
lovel=1
pitch_keycenter=F#4
sample=4Trumpets_tenuto_whole_PP_F#4.opus
</region>

<region>
hivel=127
key=F#3
lovel=1
sample=4Trumpets_tenuto_whole_PP_F#3.opus
</region>

<region>
hikey=E5
hivel=127
lokey=D#5
lovel=1
pitch_keycenter=E5
sample=4Trumpets_tenuto_whole_PP_E5.opus
</region>

<region>
hikey=E4
hivel=127
lokey=D#4
lovel=1
pitch_keycenter=E4
sample=4Trumpets_tenuto_whole_PP_E4.opus
</region>

<region>
hikey=D5
hivel=127
lokey=C#5
lovel=1
pitch_keycenter=D5
sample=4Trumpets_tenuto_whole_PP_D5.opus
</region>

<region>
hikey=D4
hivel=127
lokey=C#4
lovel=1
pitch_keycenter=D4
sample=4Trumpets_tenuto_whole_PP_D4.opus
</region>

<region>
hikey=C6
hivel=127
lokey=B5
lovel=1
pitch_keycenter=C6
sample=4Trumpets_tenuto_whole_PP_C6.opus
</region>

<region>
hikey=C5
hivel=127
lokey=B4
lovel=1
pitch_keycenter=C5
sample=4Trumpets_tenuto_whole_PP_C5.opus
</region>

<region>
hikey=C4
hivel=127
lokey=B3
lovel=1
sample=4Trumpets_tenuto_whole_PP_C4.opus
</region>

<region>
hikey=A#5
hivel=127
lokey=A5
lovel=1
pitch_keycenter=A#5
sample=4Trumpets_tenuto_whole_PP_A#5.opus
</region>

<region>
hikey=A#4
hivel=127
lokey=A4
lovel=1
pitch_keycenter=A#4
sample=4Trumpets_tenuto_whole_PP_A#4.opus
</region>

<region>
hikey=A#3
hivel=127
lokey=A3
lovel=1
pitch_keycenter=A#3
sample=4Trumpets_tenuto_whole_PP_A#3.opus
</region>
</group>

<group>
ampeg_attack=1.5
ampeg_release=0.25
group_label=PP
xfin_hicc1=42
xfout_hicc1=85
xfout_locc1=42

<region>
hivel=127
key=A#3
loop_end=202084
loop_mode=loop_continuous
loop_start=64897
loop_xfade=16623
lovel=0
sample=4Trumpets_sustain_PP_A#3.opus
</region>

<region>
hivel=127
key=A#4
loop_end=201206
loop_mode=loop_continuous
loop_start=64615
loop_xfade=16551
lovel=0
sample=4Trumpets_sustain_PP_A#4.opus
</region>

<region>
hivel=127
key=A#5
loop_end=184311
loop_mode=loop_continuous
loop_start=59189
loop_xfade=15161
lovel=0
sample=4Trumpets_sustain_PP_A#5.opus
</region>

<region>
hivel=127
key=A3
loop_end=201572
loop_mode=loop_continuous
loop_start=64732
loop_xfade=16581
lovel=0
sample=4Trumpets_sustain_PP_A3.opus
</region>

<region>
hivel=127
key=A4
loop_end=201646
loop_mode=loop_continuous
loop_start=64756
loop_xfade=16587
lovel=0
sample=4Trumpets_sustain_PP_A4.opus
</region>

<region>
hivel=127
key=A5
loop_end=197683
loop_mode=loop_continuous
loop_start=63483
loop_xfade=16261
lovel=0
sample=4Trumpets_sustain_PP_A5.opus
</region>

<region>
hivel=127
key=B3
loop_end=200116
loop_mode=loop_continuous
loop_start=64264
loop_xfade=16461
lovel=0
sample=4Trumpets_sustain_PP_B3.opus
</region>

<region>
hivel=127
key=B4
loop_end=198778
loop_mode=loop_continuous
loop_start=63835
loop_xfade=16351
lovel=0
sample=4Trumpets_sustain_PP_B4.opus
</region>

<region>
hivel=127
key=B5
loop_end=200844
loop_mode=loop_continuous
loop_start=64498
loop_xfade=16521
lovel=0
sample=4Trumpets_sustain_PP_B5.opus
</region>

<region>
hivel=127
key=C#4
loop_end=201448
loop_mode=loop_continuous
loop_start=64692
loop_xfade=16571
lovel=0
sample=4Trumpets_sustain_PP_C#4.opus
</region>

<region>
hivel=127
key=C#5
loop_end=197958
loop_mode=loop_continuous
loop_start=63572
loop_xfade=16283
lovel=0
sample=4Trumpets_sustain_PP_C#5.opus
</region>

<region>
hikey=C4
hivel=127
lokey=C4
loop_end=199219
loop_mode=loop_continuous
loop_start=63976
loop_xfade=16387
lovel=0
sample=4Trumpets_sustain_PP_C4.opus
</region>

<region>
hivel=127
key=C5
loop_end=201637
loop_mode=loop_continuous
loop_start=64753
loop_xfade=16586
lovel=0
sample=4Trumpets_sustain_PP_C5.opus
</region>

<region>
hivel=127
key=C6
loop_end=201872
loop_mode=loop_continuous
loop_start=64828
loop_xfade=16606
lovel=0
sample=4Trumpets_sustain_PP_C6.opus
</region>

<region>
hivel=127
key=D#4
loop_end=191731
loop_mode=loop_continuous
loop_start=61572
loop_xfade=15771
lovel=0
sample=4Trumpets_sustain_PP_D#4.opus
</region>

<region>
hivel=127
key=D#5
loop_end=198850
loop_mode=loop_continuous
loop_start=63858
loop_xfade=16357
lovel=0
sample=4Trumpets_sustain_PP_D#5.opus
</region>

<region>
hivel=127
key=D4
loop_end=199093
loop_mode=loop_continuous
loop_start=63936
loop_xfade=16377
lovel=0
sample=4Trumpets_sustain_PP_D4.opus
</region>

<region>
hivel=127
key=D5
loop_end=194808
loop_mode=loop_continuous
loop_start=62560
loop_xfade=16024
lovel=0
sample=4Trumpets_sustain_PP_D5.opus
</region>

<region>
hivel=127
key=E4
loop_end=201769
loop_mode=loop_continuous
loop_start=64795
loop_xfade=16597
lovel=0
sample=4Trumpets_sustain_PP_E4.opus
</region>

<region>
hivel=127
key=E5
loop_end=198685
loop_mode=loop_continuous
loop_start=63805
loop_xfade=16343
lovel=0
sample=4Trumpets_sustain_PP_E5.opus
</region>

<region>
hivel=127
key=F#3
loop_end=202371
loop_mode=loop_continuous
loop_start=64989
loop_xfade=16646
lovel=0
sample=4Trumpets_sustain_PP_F#3.opus
</region>

<region>
hivel=127
key=F#4
loop_end=198989
loop_mode=loop_continuous
loop_start=63902
loop_xfade=16368
lovel=0
sample=4Trumpets_sustain_PP_F#4.opus
</region>

<region>
hivel=127
key=F#5
loop_end=197624
loop_mode=loop_continuous
loop_start=63464
loop_xfade=16256
lovel=0
sample=4Trumpets_sustain_PP_F#5.opus
</region>

<region>
hivel=127
key=F4
loop_end=197902
loop_mode=loop_continuous
loop_start=63553
loop_xfade=16279
lovel=0
sample=4Trumpets_sustain_PP_F4.opus
</region>

<region>
hivel=127
key=F5
loop_end=198389
loop_mode=loop_continuous
loop_start=63710
loop_xfade=16319
lovel=0
sample=4Trumpets_sustain_PP_F5.opus
</region>

<region>
hivel=127
key=G#3
loop_end=196976
loop_mode=loop_continuous
loop_start=63256
loop_xfade=16203
lovel=0
sample=4Trumpets_sustain_PP_G#3.opus
</region>

<region>
hivel=127
key=G#4
loop_end=200417
loop_mode=loop_continuous
loop_start=64361
loop_xfade=16486
lovel=0
sample=4Trumpets_sustain_PP_G#4.opus
</region>

<region>
hivel=127
key=G#5
loop_end=198039
loop_mode=loop_continuous
loop_start=63598
loop_xfade=16290
lovel=0
sample=4Trumpets_sustain_PP_G#5.opus
</region>

<region>
hivel=127
key=G3
loop_end=201886
loop_mode=loop_continuous
loop_start=64833
loop_xfade=16607
lovel=0
sample=4Trumpets_sustain_PP_G3.opus
</region>

<region>
hivel=127
key=G4
loop_end=202627
loop_mode=loop_continuous
loop_start=65071
loop_xfade=16668
lovel=0
sample=4Trumpets_sustain_PP_G4.opus
</region>

<region>
hivel=127
key=G5
loop_end=198866
loop_mode=loop_continuous
loop_start=63863
loop_xfade=16358
lovel=0
sample=4Trumpets_sustain_PP_G5.opus
</region>
</group>

<group>
ampeg_attack=1.5
ampeg_release=0.25
group_label=MF
xfin_hicc1=85
xfin_locc1=42
xfout_hicc1=127
xfout_locc1=85

<region>
hivel=127
key=A#3
loop_end=201918
loop_mode=loop_continuous
loop_start=64843
loop_xfade=16609
lovel=0
sample=4Trumpets_sustain_MF_A#3.opus
</region>

<region>
hivel=127
key=A#4
loop_end=201074
loop_mode=loop_continuous
loop_start=64572
loop_xfade=16540
lovel=0
sample=4Trumpets_sustain_MF_A#4.opus
</region>

<region>
hivel=127
key=A#5
loop_end=199277
loop_mode=loop_continuous
loop_start=63995
loop_xfade=16392
lovel=0
sample=4Trumpets_sustain_MF_A#5.opus
</region>

<region>
hivel=127
key=A3
loop_end=201191
loop_mode=loop_continuous
loop_start=64610
loop_xfade=16549
lovel=0
sample=4Trumpets_sustain_MF_A3.opus
</region>

<region>
hivel=127
key=A4
loop_end=199636
loop_mode=loop_continuous
loop_start=64110
loop_xfade=16422
lovel=0
sample=4Trumpets_sustain_MF_A4.opus
</region>

<region>
hivel=127
key=A5
loop_end=199921
loop_mode=loop_continuous
loop_start=64202
loop_xfade=16445
lovel=0
sample=4Trumpets_sustain_MF_A5.opus
</region>

<region>
hivel=127
key=B3
loop_end=200968
loop_mode=loop_continuous
loop_start=64538
loop_xfade=16531
lovel=0
sample=4Trumpets_sustain_MF_B3.opus
</region>

<region>
hivel=127
key=B4
loop_end=197721
loop_mode=loop_continuous
loop_start=63495
loop_xfade=16264
lovel=0
sample=4Trumpets_sustain_MF_B4.opus
</region>

<region>
hivel=127
key=B5
loop_end=199679
loop_mode=loop_continuous
loop_start=64124
loop_xfade=16425
lovel=0
sample=4Trumpets_sustain_MF_B5.opus
</region>

<region>
hivel=127
key=C#4
loop_end=200546
loop_mode=loop_continuous
loop_start=64403
loop_xfade=16496
lovel=0
sample=4Trumpets_sustain_MF_C#4.opus
</region>

<region>
hivel=127
key=C#5
loop_end=195356
loop_mode=loop_continuous
loop_start=62736
loop_xfade=16069
lovel=0
sample=4Trumpets_sustain_MF_C#5.opus
</region>

<region>
hikey=C4
hivel=127
lokey=C4
loop_end=201465
loop_mode=loop_continuous
loop_start=64698
loop_xfade=16572
lovel=0
sample=4Trumpets_sustain_MF_C4.opus
</region>

<region>
hivel=127
key=C5
loop_end=197314
loop_mode=loop_continuous
loop_start=63365
loop_xfade=16230
lovel=0
sample=4Trumpets_sustain_MF_C5.opus
</region>

<region>
hivel=127
key=C6
loop_end=201231
loop_mode=loop_continuous
loop_start=64622
loop_xfade=16553
lovel=0
sample=4Trumpets_sustain_MF_C6.opus
</region>

<region>
hivel=127
key=D#4
loop_end=192798
loop_mode=loop_continuous
loop_start=61914
loop_xfade=15859
lovel=0
sample=4Trumpets_sustain_MF_D#4.opus
</region>

<region>
hivel=127
key=D#5
loop_end=200515
loop_mode=loop_continuous
loop_start=64393
loop_xfade=16494
lovel=0
sample=4Trumpets_sustain_MF_D#5.opus
</region>

<region>
hivel=127
key=D4
loop_end=201563
loop_mode=loop_continuous
loop_start=64729
loop_xfade=16580
lovel=0
sample=4Trumpets_sustain_MF_D4.opus
</region>

<region>
hivel=127
key=D5
loop_end=200046
loop_mode=loop_continuous
loop_start=64242
loop_xfade=16455
lovel=0
sample=4Trumpets_sustain_MF_D5.opus
</region>

<region>
hivel=127
key=E4
loop_end=200971
loop_mode=loop_continuous
loop_start=64539
loop_xfade=16531
lovel=0
sample=4Trumpets_sustain_MF_E4.opus
</region>

<region>
hivel=127
key=E5
loop_end=199834
loop_mode=loop_continuous
loop_start=64174
loop_xfade=16438
lovel=0
sample=4Trumpets_sustain_MF_E5.opus
</region>

<region>
hivel=127
key=F#3
loop_end=200230
loop_mode=loop_continuous
loop_start=64301
loop_xfade=16470
lovel=0
sample=4Trumpets_sustain_MF_F#3.opus
</region>

<region>
hivel=127
key=F#4
loop_end=200845
loop_mode=loop_continuous
loop_start=64499
loop_xfade=16521
lovel=0
sample=4Trumpets_sustain_MF_F#4.opus
</region>

<region>
hivel=127
key=F#5
loop_end=197348
loop_mode=loop_continuous
loop_start=63376
loop_xfade=16233
lovel=0
sample=4Trumpets_sustain_MF_F#5.opus
</region>

<region>
hivel=127
key=F4
loop_end=203513
loop_mode=loop_continuous
loop_start=65355
loop_xfade=16741
lovel=0
sample=4Trumpets_sustain_MF_F4.opus
</region>

<region>
hivel=127
key=F5
loop_end=199306
loop_mode=loop_continuous
loop_start=64004
loop_xfade=16394
lovel=0
sample=4Trumpets_sustain_MF_F5.opus
</region>

<region>
hivel=127
key=G#3
loop_end=201626
loop_mode=loop_continuous
loop_start=64749
loop_xfade=16585
lovel=0
sample=4Trumpets_sustain_MF_G#3.opus
</region>

<region>
hivel=127
key=G#4
loop_end=201298
loop_mode=loop_continuous
loop_start=64644
loop_xfade=16558
lovel=0
sample=4Trumpets_sustain_MF_G#4.opus
</region>

<region>
hivel=127
key=G#5
loop_end=202229
loop_mode=loop_continuous
loop_start=64943
loop_xfade=16635
lovel=0
sample=4Trumpets_sustain_MF_G#5.opus
</region>

<region>
hivel=127
key=G3
loop_end=199115
loop_mode=loop_continuous
loop_start=63943
loop_xfade=16379
lovel=0
sample=4Trumpets_sustain_MF_G3.opus
</region>

<region>
hivel=127
key=G4
loop_end=200481
loop_mode=loop_continuous
loop_start=64382
loop_xfade=16491
lovel=0
sample=4Trumpets_sustain_MF_G4.opus
</region>

<region>
hivel=127
key=G5
loop_end=201457
loop_mode=loop_continuous
loop_start=64695
loop_xfade=16571
lovel=0
sample=4Trumpets_sustain_MF_G5.opus
</region>
</group>

<group>
ampeg_attack=1.5
ampeg_release=0.25
group_label=FF
xfin_hicc1=127
xfin_locc1=85
xfout_hicc1=127
xfout_locc1=127

<region>
hivel=127
key=A#3
loop_end=199819
loop_mode=loop_continuous
loop_start=64169
loop_xfade=16437
lovel=0
sample=4Trumpets_sustain_FF_A#3.opus
</region>

<region>
hivel=127
key=A#4
loop_end=199557
loop_mode=loop_continuous
loop_start=64085
loop_xfade=16415
lovel=0
sample=4Trumpets_sustain_FF_A#4.opus
</region>

<region>
hivel=127
key=A#5
loop_end=199836
loop_mode=loop_continuous
loop_start=64175
loop_xfade=16438
lovel=0
sample=4Trumpets_sustain_FF_A#5.opus
</region>

<region>
hivel=127
key=A3
loop_end=199059
loop_mode=loop_continuous
loop_start=63925
loop_xfade=16374
lovel=0
sample=4Trumpets_sustain_FF_A3.opus
</region>

<region>
hivel=127
key=A4
loop_end=199830
loop_mode=loop_continuous
loop_start=64173
loop_xfade=16437
lovel=0
sample=4Trumpets_sustain_FF_A4.opus
</region>

<region>
hivel=127
key=A5
loop_end=198757
loop_mode=loop_continuous
loop_start=63828
loop_xfade=16349
lovel=0
sample=4Trumpets_sustain_FF_A5.opus
</region>

<region>
hivel=127
key=B3
loop_end=199234
loop_mode=loop_continuous
loop_start=63981
loop_xfade=16389
lovel=0
sample=4Trumpets_sustain_FF_B3.opus
</region>

<region>
hivel=127
key=B4
loop_end=198678
loop_mode=loop_continuous
loop_start=63803
loop_xfade=16343
lovel=0
sample=4Trumpets_sustain_FF_B4.opus
</region>

<region>
hivel=127
key=B5
loop_end=198950
loop_mode=loop_continuous
loop_start=63890
loop_xfade=16365
lovel=0
sample=4Trumpets_sustain_FF_B5.opus
</region>

<region>
hivel=127
key=C#4
loop_end=200398
loop_mode=loop_continuous
loop_start=64355
loop_xfade=16484
lovel=0
sample=4Trumpets_sustain_FF_C#4.opus
</region>

<region>
hivel=127
key=C#5
loop_end=196796
loop_mode=loop_continuous
loop_start=63198
loop_xfade=16188
lovel=0
sample=4Trumpets_sustain_FF_C#5.opus
</region>

<region>
hikey=C4
hivel=127
lokey=C4
loop_end=199738
loop_mode=loop_continuous
loop_start=64143
loop_xfade=16430
lovel=0
sample=4Trumpets_sustain_FF_C4.opus
</region>

<region>
hivel=127
key=C5
loop_end=198128
loop_mode=loop_continuous
loop_start=63626
loop_xfade=16298
lovel=0
sample=4Trumpets_sustain_FF_C5.opus
</region>

<region>
hivel=127
key=C6
loop_end=199276
loop_mode=loop_continuous
loop_start=63995
loop_xfade=16392
lovel=0
sample=4Trumpets_sustain_FF_C6.opus
</region>

<region>
hivel=127
key=D#4
loop_end=190468
loop_mode=loop_continuous
loop_start=61166
loop_xfade=15667
lovel=0
sample=4Trumpets_sustain_FF_D#4.opus
</region>

<region>
hivel=127
key=D#5
loop_end=195186
loop_mode=loop_continuous
loop_start=62681
loop_xfade=16056
lovel=0
sample=4Trumpets_sustain_FF_D#5.opus
</region>

<region>
hivel=127
key=D4
loop_end=199969
loop_mode=loop_continuous
loop_start=64217
loop_xfade=16449
lovel=0
sample=4Trumpets_sustain_FF_D4.opus
</region>

<region>
hivel=127
key=D5
loop_end=195800
loop_mode=loop_continuous
loop_start=62878
loop_xfade=16106
lovel=0
sample=4Trumpets_sustain_FF_D5.opus
</region>

<region>
hivel=127
key=E4
loop_end=199564
loop_mode=loop_continuous
loop_start=64087
loop_xfade=16416
lovel=0
sample=4Trumpets_sustain_FF_E4.opus
</region>

<region>
hivel=127
key=E5
loop_end=197933
loop_mode=loop_continuous
loop_start=63563
loop_xfade=16282
lovel=0
sample=4Trumpets_sustain_FF_E5.opus
</region>

<region>
hivel=127
key=F#3
loop_end=197073
loop_mode=loop_continuous
loop_start=63287
loop_xfade=16211
lovel=0
sample=4Trumpets_sustain_FF_F#3.opus
</region>

<region>
hivel=127
key=F#4
loop_end=200220
loop_mode=loop_continuous
loop_start=64298
loop_xfade=16470
lovel=0
sample=4Trumpets_sustain_FF_F#4.opus
</region>

<region>
hivel=127
key=F#5
loop_end=197530
loop_mode=loop_continuous
loop_start=63434
loop_xfade=16248
lovel=0
sample=4Trumpets_sustain_FF_F#5.opus
</region>

<region>
hivel=127
key=F4
loop_end=198947
loop_mode=loop_continuous
loop_start=63889
loop_xfade=16365
lovel=0
sample=4Trumpets_sustain_FF_F4.opus
</region>

<region>
hivel=127
key=F5
loop_end=199251
loop_mode=loop_continuous
loop_start=63987
loop_xfade=16390
lovel=0
sample=4Trumpets_sustain_FF_F5.opus
</region>

<region>
hivel=127
key=G#3
loop_end=198902
loop_mode=loop_continuous
loop_start=63874
loop_xfade=16361
lovel=0
sample=4Trumpets_sustain_FF_G#3.opus
</region>

<region>
hivel=127
key=G#4
loop_end=198361
loop_mode=loop_continuous
loop_start=63701
loop_xfade=16317
lovel=0
sample=4Trumpets_sustain_FF_G#4.opus
</region>

<region>
hivel=127
key=G#5
loop_end=199151
loop_mode=loop_continuous
loop_start=63955
loop_xfade=16382
lovel=0
sample=4Trumpets_sustain_FF_G#5.opus
</region>

<region>
hivel=127
key=G3
loop_end=198473
loop_mode=loop_continuous
loop_start=63737
loop_xfade=16326
lovel=0
sample=4Trumpets_sustain_FF_G3.opus
</region>

<region>
hivel=127
key=G4
loop_end=199453
loop_mode=loop_continuous
loop_start=64052
loop_xfade=16406
lovel=0
sample=4Trumpets_sustain_FF_G4.opus
</region>

<region>
hivel=127
key=G5
loop_end=200442
loop_mode=loop_continuous
loop_start=64369
loop_xfade=16488
lovel=0
sample=4Trumpets_sustain_FF_G5.opus
</region>
</group>

<group>
ampeg_attack=0.01
ampeg_release=1.25
group_label=PP_copy
offset=192000
trigger=release
xf_cccurve=gain
xfin_hicc1=42
xfout_hicc1=85
xfout_locc1=42

<region>
hivel=127
key=A#3
lovel=0
sample=4Trumpets_sustain_PP_A#3.opus
</region>

<region>
hivel=127
key=A#4
lovel=0
sample=4Trumpets_sustain_PP_A#4.opus
</region>

<region>
hivel=127
key=A#5
lovel=0
sample=4Trumpets_sustain_PP_A#5.opus
</region>

<region>
hivel=127
key=A3
lovel=0
sample=4Trumpets_sustain_PP_A3.opus
</region>

<region>
hivel=127
key=A4
lovel=0
sample=4Trumpets_sustain_PP_A4.opus
</region>

<region>
hivel=127
key=A5
lovel=0
sample=4Trumpets_sustain_PP_A5.opus
</region>

<region>
hivel=127
key=B3
lovel=0
sample=4Trumpets_sustain_PP_B3.opus
</region>

<region>
hivel=127
key=B4
lovel=0
sample=4Trumpets_sustain_PP_B4.opus
</region>

<region>
hivel=127
key=B5
lovel=0
sample=4Trumpets_sustain_PP_B5.opus
</region>

<region>
hivel=127
key=C#4
lovel=0
sample=4Trumpets_sustain_PP_C#4.opus
</region>

<region>
hivel=127
key=C#5
lovel=0
sample=4Trumpets_sustain_PP_C#5.opus
</region>

<region>
hikey=C4
hivel=127
lokey=C4
lovel=0
sample=4Trumpets_sustain_PP_C4.opus
</region>

<region>
hivel=127
key=C5
lovel=0
sample=4Trumpets_sustain_PP_C5.opus
</region>

<region>
hivel=127
key=C6
lovel=0
sample=4Trumpets_sustain_PP_C6.opus
</region>

<region>
hivel=127
key=D#4
lovel=0
sample=4Trumpets_sustain_PP_D#4.opus
</region>

<region>
hivel=127
key=D#5
lovel=0
sample=4Trumpets_sustain_PP_D#5.opus
</region>

<region>
hivel=127
key=D4
lovel=0
sample=4Trumpets_sustain_PP_D4.opus
</region>

<region>
hivel=127
key=D5
lovel=0
sample=4Trumpets_sustain_PP_D5.opus
</region>

<region>
hivel=127
key=E4
lovel=0
sample=4Trumpets_sustain_PP_E4.opus
</region>

<region>
hivel=127
key=E5
lovel=0
sample=4Trumpets_sustain_PP_E5.opus
</region>

<region>
hivel=127
key=F#3
lovel=0
sample=4Trumpets_sustain_PP_F#3.opus
</region>

<region>
hivel=127
key=F#4
lovel=0
sample=4Trumpets_sustain_PP_F#4.opus
</region>

<region>
hivel=127
key=F#5
lovel=0
sample=4Trumpets_sustain_PP_F#5.opus
</region>

<region>
hivel=127
key=F4
lovel=0
sample=4Trumpets_sustain_PP_F4.opus
</region>

<region>
hivel=127
key=F5
lovel=0
sample=4Trumpets_sustain_PP_F5.opus
</region>

<region>
hivel=127
key=G#3
lovel=0
sample=4Trumpets_sustain_PP_G#3.opus
</region>

<region>
hivel=127
key=G#4
lovel=0
sample=4Trumpets_sustain_PP_G#4.opus
</region>

<region>
hivel=127
key=G#5
lovel=0
sample=4Trumpets_sustain_PP_G#5.opus
</region>

<region>
hivel=127
key=G3
lovel=0
sample=4Trumpets_sustain_PP_G3.opus
</region>

<region>
hivel=127
key=G4
lovel=0
sample=4Trumpets_sustain_PP_G4.opus
</region>

<region>
hivel=127
key=G5
lovel=0
sample=4Trumpets_sustain_PP_G5.opus
</region>
</group>

<group>
ampeg_attack=0.01
ampeg_release=1.25
group_label=MF_copy
offset=192000
trigger=release
xf_cccurve=gain
xfin_hicc1=85
xfin_locc1=42
xfout_hicc1=127
xfout_locc1=85

<region>
hivel=127
key=A#3
lovel=0
sample=4Trumpets_sustain_MF_A#3.opus
</region>

<region>
hivel=127
key=A#4
lovel=0
sample=4Trumpets_sustain_MF_A#4.opus
</region>

<region>
hivel=127
key=A#5
lovel=0
sample=4Trumpets_sustain_MF_A#5.opus
</region>

<region>
hivel=127
key=A3
lovel=0
sample=4Trumpets_sustain_MF_A3.opus
</region>

<region>
hivel=127
key=A4
lovel=0
sample=4Trumpets_sustain_MF_A4.opus
</region>

<region>
hivel=127
key=A5
lovel=0
sample=4Trumpets_sustain_MF_A5.opus
</region>

<region>
hivel=127
key=B3
lovel=0
sample=4Trumpets_sustain_MF_B3.opus
</region>

<region>
hivel=127
key=B4
lovel=0
sample=4Trumpets_sustain_MF_B4.opus
</region>

<region>
hivel=127
key=B5
lovel=0
sample=4Trumpets_sustain_MF_B5.opus
</region>

<region>
hivel=127
key=C#4
lovel=0
sample=4Trumpets_sustain_MF_C#4.opus
</region>

<region>
hivel=127
key=C#5
lovel=0
sample=4Trumpets_sustain_MF_C#5.opus
</region>

<region>
hikey=C4
hivel=127
lokey=C4
lovel=0
sample=4Trumpets_sustain_MF_C4.opus
</region>

<region>
hivel=127
key=C5
lovel=0
sample=4Trumpets_sustain_MF_C5.opus
</region>

<region>
hivel=127
key=C6
lovel=0
sample=4Trumpets_sustain_MF_C6.opus
</region>

<region>
hivel=127
key=D#4
lovel=0
sample=4Trumpets_sustain_MF_D#4.opus
</region>

<region>
hivel=127
key=D#5
lovel=0
sample=4Trumpets_sustain_MF_D#5.opus
</region>

<region>
hivel=127
key=D4
lovel=0
sample=4Trumpets_sustain_MF_D4.opus
</region>

<region>
hivel=127
key=D5
lovel=0
sample=4Trumpets_sustain_MF_D5.opus
</region>

<region>
hivel=127
key=E4
lovel=0
sample=4Trumpets_sustain_MF_E4.opus
</region>

<region>
hivel=127
key=E5
lovel=0
sample=4Trumpets_sustain_MF_E5.opus
</region>

<region>
hivel=127
key=F#3
lovel=0
sample=4Trumpets_sustain_MF_F#3.opus
</region>

<region>
hivel=127
key=F#4
lovel=0
sample=4Trumpets_sustain_MF_F#4.opus
</region>

<region>
hivel=127
key=F#5
lovel=0
sample=4Trumpets_sustain_MF_F#5.opus
</region>

<region>
hivel=127
key=F4
lovel=0
sample=4Trumpets_sustain_MF_F4.opus
</region>

<region>
hivel=127
key=F5
lovel=0
sample=4Trumpets_sustain_MF_F5.opus
</region>

<region>
hivel=127
key=G#3
lovel=0
sample=4Trumpets_sustain_MF_G#3.opus
</region>

<region>
hivel=127
key=G#4
lovel=0
sample=4Trumpets_sustain_MF_G#4.opus
</region>

<region>
hivel=127
key=G#5
lovel=0
sample=4Trumpets_sustain_MF_G#5.opus
</region>

<region>
hivel=127
key=G3
lovel=0
sample=4Trumpets_sustain_MF_G3.opus
</region>

<region>
hivel=127
key=G4
lovel=0
sample=4Trumpets_sustain_MF_G4.opus
</region>

<region>
hivel=127
key=G5
lovel=0
sample=4Trumpets_sustain_MF_G5.opus
</region>
</group>

<group>
ampeg_attack=0.01
ampeg_release=1.25
group_label=FF_copy
offset=192000
trigger=release
xf_cccurve=gain
xfin_hicc1=127
xfin_locc1=85
xfout_hicc1=127
xfout_locc1=127

<region>
hivel=127
key=A#3
lovel=0
sample=4Trumpets_sustain_FF_A#3.opus
</region>

<region>
hivel=127
key=A#4
lovel=0
sample=4Trumpets_sustain_FF_A#4.opus
</region>

<region>
hivel=127
key=A#5
lovel=0
sample=4Trumpets_sustain_FF_A#5.opus
</region>

<region>
hivel=127
key=A3
lovel=0
sample=4Trumpets_sustain_FF_A3.opus
</region>

<region>
hivel=127
key=A4
lovel=0
sample=4Trumpets_sustain_FF_A4.opus
</region>

<region>
hivel=127
key=A5
lovel=0
sample=4Trumpets_sustain_FF_A5.opus
</region>

<region>
hivel=127
key=B3
lovel=0
sample=4Trumpets_sustain_FF_B3.opus
</region>

<region>
hivel=127
key=B4
lovel=0
sample=4Trumpets_sustain_FF_B4.opus
</region>

<region>
hivel=127
key=B5
lovel=0
sample=4Trumpets_sustain_FF_B5.opus
</region>

<region>
hivel=127
key=C#4
lovel=0
sample=4Trumpets_sustain_FF_C#4.opus
</region>

<region>
hivel=127
key=C#5
lovel=0
sample=4Trumpets_sustain_FF_C#5.opus
</region>

<region>
hikey=C4
hivel=127
lokey=C4
lovel=0
sample=4Trumpets_sustain_FF_C4.opus
</region>

<region>
hivel=127
key=C5
lovel=0
sample=4Trumpets_sustain_FF_C5.opus
</region>

<region>
hivel=127
key=C6
lovel=0
sample=4Trumpets_sustain_FF_C6.opus
</region>

<region>
hivel=127
key=D#4
lovel=0
sample=4Trumpets_sustain_FF_D#4.opus
</region>

<region>
hivel=127
key=D#5
lovel=0
sample=4Trumpets_sustain_FF_D#5.opus
</region>

<region>
hivel=127
key=D4
lovel=0
sample=4Trumpets_sustain_FF_D4.opus
</region>

<region>
hivel=127
key=D5
lovel=0
sample=4Trumpets_sustain_FF_D5.opus
</region>

<region>
hivel=127
key=E4
lovel=0
sample=4Trumpets_sustain_FF_E4.opus
</region>

<region>
hivel=127
key=E5
lovel=0
sample=4Trumpets_sustain_FF_E5.opus
</region>

<region>
hivel=127
key=F#3
lovel=0
sample=4Trumpets_sustain_FF_F#3.opus
</region>

<region>
hivel=127
key=F#4
lovel=0
sample=4Trumpets_sustain_FF_F#4.opus
</region>

<region>
hivel=127
key=F#5
lovel=0
sample=4Trumpets_sustain_FF_F#5.opus
</region>

<region>
hivel=127
key=F4
lovel=0
sample=4Trumpets_sustain_FF_F4.opus
</region>

<region>
hivel=127
key=F5
lovel=0
sample=4Trumpets_sustain_FF_F5.opus
</region>

<region>
hivel=127
key=G#3
lovel=0
sample=4Trumpets_sustain_FF_G#3.opus
</region>

<region>
hivel=127
key=G#4
lovel=0
sample=4Trumpets_sustain_FF_G#4.opus
</region>

<region>
hivel=127
key=G#5
lovel=0
sample=4Trumpets_sustain_FF_G#5.opus
</region>

<region>
hivel=127
key=G3
lovel=0
sample=4Trumpets_sustain_FF_G3.opus
</region>

<region>
hivel=127
key=G4
lovel=0
sample=4Trumpets_sustain_FF_G4.opus
</region>

<region>
hivel=127
key=G5
lovel=0
sample=4Trumpets_sustain_FF_G5.opus
</region>
</group>